# Alias OBJ Model File
# Exported from SketchUp, (c) 2000-2012 Trimble Navigation Limited
# File units = meters

mtllib C.mtl

g Mesh1 Model

usemtl _7
v 0 0 2
vt 0 -78.7402
vn 0 -1 -0
v 0 0 -0
vt 0 0
v 2 0 -0
vt -78.7402 0
v 2 0 2
vt -78.7402 -78.7402
f 1/1/1 2/2/1 3/3/1 4/4/1 

vn -1 0 -0
vt 78.7402 0
v 0 2 2
vt 78.7402 78.7402
v 0 2 -0
vt 0 78.7402
f 2/2/2 1/5/2 5/6/2 6/7/2 

vn 0 0 1
v 0.4 0.4 2
vt 15.748 15.748
f 1/2/3 7/8/3 5/7/3

v 0.6 0.2 2
vt 23.622 7.87402
f 7/8/3 1/2/3 8/9/3

v 1.6 0.2 2
vt 62.9921 7.87402
f 1/2/3 9/10/3 8/9/3

f 4/5/3 9/10/3 1/2/3

v 2 2 2
f 9/10/3 4/5/3 10/6/3

vn 1 0 -0
v 2 2 -0
vt -78.7402 78.7402
f 4/3/4 3/2/4 11/7/4 10/11/4 

vn 0 0 -1
f 3/3/5 2/2/5 6/7/5 11/11/5 

vn 0 1 -0
vt 78.7402 -78.7402
f 6/2/6 5/1/6 10/12/6 11/5/6 

v 0.6 1.8 2
vt 23.622 70.8661
f 5/7/3 12/13/3 10/6/3

v 0.4 1.6 2
vt 15.748 62.9921
f 5/7/3 13/14/3 12/13/3

f 5/7/3 7/8/3 13/14/3

usemtl _8
vt -78.7402 62.9921
vn 1 -3.75996e-17 -0
vt -78.7402 15.748
v 0.4 0.4 1
vt -39.3701 15.748
v 0.4 1.6 1
vt -39.3701 62.9921
f 13/15/7 7/16/7 14/17/7 15/18/7 

vt -78.7402 -5.32907e-15
vn 0.707107 0.707107 -0
vt -78.7402 -11.1355
v 0.6 0.2 1
vt -39.3701 -11.1355
vt -39.3701 -5.32907e-15
f 7/19/8 8/20/8 16/21/8 14/22/8 

vt 23.622 -78.7402
vn -2.25597e-17 1 -0
vt 62.9921 -78.7402
v 1.6 0.2 1
vt 62.9921 -39.3701
vt 23.622 -39.3701
f 8/23/9 9/24/9 17/25/9 16/26/9 

vt 78.7402 7.87402
v 1.6 0.4 2
vt 78.7402 15.748
v 1.6 0.4 1
vt 39.3701 15.748
vt 39.3701 7.87402
f 9/27/2 18/28/2 19/29/2 17/30/2 

usemtl _7
vt 62.9921 15.748
f 9/10/3 10/6/3 18/31/3

v 0.682843 0.4 2
vt 26.8836 15.748
f 18/31/3 10/6/3 20/32/3

v 0.6 0.482843 2
vt 23.622 19.0096
f 20/32/3 10/6/3 21/33/3

v 1.6 1.6 2
vt 62.9921 62.9921
f 21/33/3 10/6/3 22/34/3

v 1.6 1.8 2
vt 62.9921 70.8661
f 22/34/3 10/6/3 23/35/3

f 23/35/3 10/6/3 12/13/3

vt -62.9921 -78.7402
vt -23.622 -78.7402
v 0.6 1.8 1
vt -23.622 -39.3701
v 1.6 1.8 1
vt -62.9921 -39.3701
f 23/36/1 12/37/1 24/38/1 25/39/1 

usemtl _8
vt -78.7402 66.8132
vn 0.707107 -0.707107 -0
vt -78.7402 55.6777
vt -39.3701 55.6777
vt -39.3701 66.8132
f 12/40/10 13/41/10 15/42/10 24/43/10 

vn 1.68816e-16 1.91842e-16 1
v 0.682843 0.4 1
v 0.6 0.482843 1
v 0.6 1.51716 1
vt 23.622 59.7306
v 0.682843 1.6 1
vt 26.8836 62.9921
v 1.6 1.6 1
f 19/31/11 26/32/11 27/33/11 28/44/11 29/45/11 30/34/11 25/35/11 24/13/11 15/14/11 14/8/11 16/9/11 17/10/11 

vt -26.8836 -78.7402
vn -4.91949e-17 -1 -1.2919e-33
vt -26.8836 -39.3701
f 20/46/12 26/47/12 19/39/12 18/36/12 

vt 78.7402 -7.87402
vn -0.707107 -0.707107 5.75802e-33
vt 78.7402 -3.26152
vt 39.3701 -3.26152
vt 39.3701 -7.87402
f 20/48/13 21/49/13 27/50/13 26/51/13 

vt 39.3701 59.7306
vt 39.3701 19.0096
vt 78.7402 19.0096
v 0.6 1.51716 2
vt 78.7402 59.7306
f 28/52/2 27/53/2 21/54/2 31/55/2 

usemtl _7
f 21/33/3 22/34/3 31/44/3

v 0.682843 1.6 2
f 32/45/3 31/44/3 22/34/3

usemtl _8
vt 78.7402 58.9392
vn -0.707107 0.707107 -0
vt 78.7402 63.5517
vt 39.3701 63.5517
vt 39.3701 58.9392
f 31/56/14 32/57/14 29/58/14 28/59/14 

vt 26.8836 -39.3701
vt 26.8836 -78.7402
f 30/25/6 29/60/6 32/61/6 22/24/6 

vt 78.7402 62.9921
vt 78.7402 70.8661
vt 39.3701 70.8661
vt 39.3701 62.9921
f 22/62/2 23/63/2 25/64/2 30/65/2 

