# Alias OBJ Model File
# Exported from SketchUp, (c) 2000-2012 Trimble Navigation Limited
# File units = meters

mtllib E.mtl

g Mesh1 Model

usemtl _9
v 0 0 2
vt 0 -78.7402
vn 0 -1 -0
v 0 0 -0
vt 0 0
v 2 0 -0
vt -78.7402 0
v 2 0 2
vt -78.7402 -78.7402
f 1/1/1 2/2/1 3/3/1 4/4/1 

vn -1 0 -0
vt 78.7402 0
v 0 2 2
vt 78.7402 78.7402
v 0 2 -0
vt 0 78.7402
f 2/2/2 1/5/2 5/6/2 6/7/2 

vn 0 0 1
v 0.2 0.2 2
vt 7.87402 7.87402
f 1/2/3 7/8/3 5/7/3

v 1.8 0.2 2
vt 70.8661 7.87402
f 7/8/3 1/2/3 8/9/3

f 4/5/3 8/9/3 1/2/3

v 2 2 2
f 8/9/3 4/5/3 9/6/3

vn 1 0 -0
v 2 2 -0
vt -78.7402 78.7402
f 4/3/4 3/2/4 10/7/4 9/10/4 

vn 0 0 -1
f 3/3/5 2/2/5 6/7/5 10/10/5 

vn 0 1 -0
vt 78.7402 -78.7402
f 6/2/6 5/1/6 9/11/6 10/5/6 

v 0.2 1.8 2
vt 7.87402 70.8661
f 5/7/3 11/12/3 9/6/3

f 5/7/3 7/8/3 11/12/3

usemtl _10
vt -78.7402 70.8661
vt -78.7402 7.87402
v 0.2 0.2 1
vt -39.3701 7.87402
v 0.2 1.8 1
vt -39.3701 70.8661
f 11/13/4 7/14/4 12/15/4 13/16/4 

vt 7.87402 -78.7402
vt 70.8661 -78.7402
v 1.8 0.2 1
vt 70.8661 -39.3701
vt 7.87402 -39.3701
f 7/17/6 8/18/6 14/19/6 12/20/6 

vt 78.7402 7.87402
v 1.8 0.4 2
vt 78.7402 15.748
v 1.8 0.4 1
vt 39.3701 15.748
vt 39.3701 7.87402
f 8/21/2 15/22/2 16/23/2 14/24/2 

usemtl _9
vt 70.8661 15.748
f 8/9/3 9/6/3 15/25/3

v 1.8 1.6 2
vt 70.8661 62.9921
f 15/25/3 9/6/3 17/26/3

v 1.8 1.8 2
vt 70.8661 70.8661
f 17/26/3 9/6/3 18/27/3

v 1.4 1.8 2
vt 55.1181 70.8661
f 18/27/3 9/6/3 19/28/3

f 19/28/3 9/6/3 11/12/3

usemtl _10
vt -55.1181 -78.7402
vt -7.87402 -78.7402
vt -7.87402 -39.3701
v 1.4 1.8 1
vt -55.1181 -39.3701
f 19/29/1 11/30/1 13/31/1 20/32/1 

v 0.4 0.4 1
vt 15.748 15.748
v 0.4 0.9 1
vt 15.748 35.4331
v 1.4 0.9 1
vt 55.1181 35.4331
v 1.4 1.1 1
vt 55.1181 43.3071
v 0.4 1.1 1
vt 15.748 43.3071
v 0.4 1.6 1
vt 15.748 62.9921
v 1.8 1.6 1
v 1.8 1.8 1
f 14/9/3 16/25/3 21/33/3 22/34/3 23/35/3 24/36/3 25/37/3 26/38/3 27/26/3 28/27/3 20/28/3 13/12/3 12/8/3 

vt -70.8661 -78.7402
vn 3.22282e-17 -1 -0
v 0.4 0.4 2
vt -15.748 -78.7402
vt -15.748 -39.3701
vt -70.8661 -39.3701
f 15/39/7 29/40/7 21/41/7 16/42/7 

usemtl _9
v 0.4 0.9 2
f 15/25/3 30/34/3 29/33/3

v 1.4 0.9 2
f 30/34/3 15/25/3 31/35/3

f 15/25/3 17/26/3 31/35/3

v 1.4 1.1 2
f 31/35/3 17/26/3 32/36/3

v 0.4 1.1 2
f 32/36/3 17/26/3 33/37/3

v 0.4 1.6 2
f 34/38/3 33/37/3 17/26/3

usemtl _10
vt 78.7402 43.3071
vn -1 9.02389e-17 -0
vt 78.7402 62.9921
vt 39.3701 62.9921
vt 39.3701 43.3071
f 33/43/8 34/44/8 26/45/8 25/46/8 

vt 15.748 -78.7402
vt 15.748 -39.3701
f 34/47/6 17/18/6 27/19/6 26/48/6 

vt 78.7402 70.8661
vt 39.3701 70.8661
f 17/44/2 18/49/2 28/50/2 27/45/2 

f 18/39/1 19/29/1 20/32/1 28/42/1 

f 32/29/1 33/40/1 25/41/1 24/32/1 

vt 78.7402 35.4331
vt 39.3701 35.4331
f 31/51/2 32/43/2 24/46/2 23/52/2 

vt 55.1181 -78.7402
vt 55.1181 -39.3701
f 30/47/6 31/53/6 23/54/6 22/48/6 

f 29/22/2 30/51/2 22/52/2 21/23/2 

