# Alias OBJ Model File
# Exported from SketchUp, (c) 2000-2012 Trimble Navigation Limited
# File units = meters

mtllib N.mtl

g Mesh1 Model

usemtl _6
v 0 0 2
vt 0 -78.7402
vn 0 -1 -0
v 0 0 -0
vt 0 0
v 2 0 -0
vt -78.7402 0
v 2 0 2
vt -78.7402 -78.7402
f 1/1/1 2/2/1 3/3/1 4/4/1 

vn -1 0 -0
vt 78.7402 0
v 0 2 2
vt 78.7402 78.7402
v 0 2 -0
vt 0 78.7402
f 2/2/2 1/5/2 5/6/2 6/7/2 

vn 0 0 1
v 0.3 0.2 2
vt 11.811 7.87402
f 1/2/3 7/8/3 5/7/3

v 1.65858 0.2 2
vt 65.2984 7.87402
f 7/8/3 1/2/3 8/9/3

v 1.7 0.2 2
vt 66.9291 7.87402
f 1/2/3 9/10/3 8/9/3

f 4/5/3 9/10/3 1/2/3

v 2 2 2
f 9/10/3 4/5/3 10/6/3

vn 1 0 -0
v 2 2 -0
vt -78.7402 78.7402
f 4/3/4 3/2/4 11/7/4 10/11/4 

vn 0 0 -1
f 3/3/5 2/2/5 6/7/5 11/11/5 

vn 0 1 -0
vt 78.7402 -78.7402
f 6/2/6 5/1/6 10/12/6 11/5/6 

v 0.3 1.8 2
vt 11.811 70.8661
f 5/7/3 12/13/3 10/6/3

f 5/7/3 7/8/3 12/13/3

usemtl _4
vt -78.7402 70.8661
vt -78.7402 7.87402
v 0.3 0.2 1
vt -39.3701 7.87402
v 0.3 1.8 1
vt -39.3701 70.8661
f 12/14/4 7/15/4 13/16/4 14/17/4 

vt 11.811 -78.7402
v 0.5 0.2 2
vt 19.685 -78.7402
v 0.5 0.2 1
vt 19.685 -39.3701
vt 11.811 -39.3701
f 7/18/6 15/19/6 16/20/6 13/21/6 

usemtl _6
vt 19.685 7.87402
f 7/8/3 8/9/3 15/22/3

v 0.5 1.35858 2
vt 19.685 53.4873
f 17/23/3 15/22/3 8/9/3

usemtl _4
vt 78.7402 7.87402
vt 78.7402 53.4873
v 0.5 1.35858 1
vt 39.3701 53.4873
vt 39.3701 7.87402
f 15/24/2 17/25/2 18/26/2 16/27/2 

vt -78.7402 23.9018
vn 0.707107 0.707107 -0
vt -78.7402 -40.6052
v 1.65858 0.2 1
vt -39.3701 -40.6052
vt -39.3701 23.9018
f 17/28/7 8/29/7 19/30/7 18/31/7 

vt 65.2984 -78.7402
vn -4.35712e-15 1 -0
vt 66.9291 -78.7402
v 1.7 0.2 1
vt 66.9291 -39.3701
vt 65.2984 -39.3701
f 8/32/8 9/33/8 20/34/8 19/35/8 

v 1.7 1.8 2
vt 78.7402 70.8661
v 1.7 1.8 1
vt 39.3701 70.8661
f 9/24/2 21/36/2 22/37/2 20/27/2 

usemtl _6
vt 66.9291 70.8661
f 9/10/3 10/6/3 21/38/3

v 1.5 1.8 2
vt 59.0551 70.8661
f 21/38/3 10/6/3 23/39/3

v 0.341421 1.8 2
vt 13.4418 70.8661
f 23/39/3 10/6/3 24/40/3

f 24/40/3 10/6/3 12/13/3

usemtl _4
vt -13.4418 -78.7402
vt -11.811 -78.7402
vt -11.811 -39.3701
v 0.341421 1.8 1
vt -13.4418 -39.3701
f 24/41/1 12/42/1 14/43/1 25/44/1 

v 1.5 1.8 1
v 1.5 0.641421 1
vt 59.0551 25.2528
f 19/9/3 20/10/3 22/38/3 26/39/3 27/45/3 25/40/3 14/13/3 13/8/3 16/22/3 18/23/3 

vt -66.9291 -78.7402
vt -59.0551 -78.7402
vt -59.0551 -39.3701
vt -66.9291 -39.3701
f 21/46/1 23/47/1 26/48/1 22/49/1 

v 1.5 0.641421 2
vt -78.7402 25.2528
vt -39.3701 25.2528
f 23/14/4 28/50/4 27/51/4 26/17/4 

usemtl _6
f 24/40/3 28/45/3 23/39/3

usemtl _4
vt 78.7402 -23.9018
vn -0.707107 -0.707107 -0
vt 78.7402 40.6052
vt 39.3701 40.6052
vt 39.3701 -23.9018
f 28/52/9 24/53/9 25/54/9 27/55/9 

